<svg xmlns="http://www.w3.org/2000/svg" width="1440" height="1024" viewBox="0 0 1440 1024">
    <defs>
        <linearGradient id="a" x1="0%" x2="105.535%" y1="40.141%" y2="40.141%">
            <stop offset="0%" stop-opacity="0"/>
            <stop offset="100%" stop-opacity=".099"/>
        </linearGradient>
    </defs>
    <g fill="url(#a)" fill-rule="evenodd" opacity=".496">
        <path d="M760.036 1749.26L1044 1505.674-96.036-1428.13-380-1184.543zM520.036 3073.174L804 2829.586-336.036-104.217-620 139.37z"/>
        <path d="M-784.036-1659.435L-1068-1415.847 72.036 1517.957 356 1274.369z"/>
        <path d="M-416.036-1507.26L-700-1263.674 440.036 1670.13 724 1426.543z"/>
        <path d="M545.536 1650.978L829.5 1407.391-310.536-1526.413-594.5-1282.825z"/>
        <path d="M-16.536-1453.413L-300.5-1209.825 839.536 1723.978l283.964-243.587z"/>
        <path d="M1149.536 1776.978l283.964-243.587L293.464-1400.413 9.5-1156.825zM989.964-1589.435L706-1345.847l1140.036 2933.804L2130 1344.369zM2294.036 1749.26L2578 1505.674 1437.964-1428.13 1154-1184.543z"/>
        <path d="M1577.964-1589.435L1294-1345.847l1140.036 2933.804L2718 1344.369zM1728.036 1749.26L2012 1505.674 871.964-1428.13 588-1184.543z"/>
    </g>
</svg>
